<?xml version="1.0" encoding="UTF-8"?>
<svg width="413px" height="512px" viewBox="0 0 413 512" version="1.1" xmlns="http://www.w3.org/2000/svg" xmlns:xlink="http://www.w3.org/1999/xlink">
    <!-- Generator: Sketch 39.1 (31720) - http://www.bohemiancoding.com/sketch -->
    <title>001-android copy</title>
    <desc>Created with Sketch.</desc>
    <defs></defs>
    <g id="Page-1" stroke="none" stroke-width="1" fill="none" fill-rule="evenodd">
        <g id="001-android-copy" transform="translate(0.000000, -1.000000)" fill="#000000">
            <g id="Capa_1">
                <g id="Group">
                    <path d="M267.957043,51.8972414 L290.323787,14.5827586 C292.867702,10.3331034 291.497213,4.82827586 287.251383,2.28206897 C282.996596,-0.273103448 277.505681,1.09862069 274.961766,5.35724138 L251.358894,44.7337931 C237.30466,39.7310345 222.256149,36.862069 206.508957,36.862069 C190.761766,36.862069 175.713255,39.7310345 161.659021,44.7337931 L138.056149,5.35724138 C135.512234,1.09862069 130.012362,-0.264137931 125.766532,2.28206897 C121.520702,4.82827586 120.150213,10.3331034 122.694128,14.5827586 L145.060872,51.8972414 C101.823277,74.2662069 72.1472553,119.362759 72.1472553,171.353793 C72.1472553,176.311724 76.1601915,180.31931 81.1047021,180.31931 L331.913213,180.31931 C336.857723,180.31931 340.87066,176.311724 340.87066,171.353793 C340.861702,119.371724 311.194638,74.2751724 267.957043,51.8972414 L267.957043,51.8972414 Z M90.4025319,162.388276 C94.9887447,102.292414 145.311681,54.802069 206.508957,54.802069 C267.706234,54.802069 318.02917,102.292414 322.615383,162.388276 L90.4025319,162.388276 L90.4025319,162.388276 Z" id="Shape"></path>
                    <path d="M269.005064,102.884138 L257.199149,102.884138 C253.938638,102.884138 251.296191,105.528966 251.296191,108.792414 L251.296191,120.608966 C251.296191,123.872414 253.938638,126.517241 257.199149,126.517241 L269.014021,126.517241 C272.274532,126.517241 274.916979,123.872414 274.916979,120.608966 L274.916979,108.792414 C274.916979,105.528966 272.265574,102.884138 269.005064,102.884138 L269.005064,102.884138 Z" id="Shape"></path>
                    <path d="M155.809809,102.884138 L143.994936,102.884138 C140.734426,102.884138 138.091979,105.528966 138.091979,108.792414 L138.091979,120.608966 C138.091979,123.872414 140.734426,126.517241 143.994936,126.517241 L155.809809,126.517241 C159.070319,126.517241 161.712766,123.872414 161.712766,120.608966 L161.712766,108.792414 C161.712766,105.528966 159.070319,102.884138 155.809809,102.884138 L155.809809,102.884138 Z" id="Shape"></path>
                    <path d="M331.904255,189.284828 L81.0957447,189.284828 C76.151234,189.284828 72.1382979,193.292414 72.1382979,198.250345 L72.1382979,379.093793 C72.1382979,402.968966 91.567,422.388276 115.438596,422.388276 L125.882979,422.388276 L125.882979,476.235172 C125.882979,495.977241 141.952638,512.043448 161.712766,512.043448 C181.472894,512.043448 197.542553,495.977241 197.542553,476.235172 L197.542553,422.388276 L215.457447,422.388276 L215.457447,476.235172 C215.457447,495.977241 231.527106,512.043448 251.287234,512.043448 C271.047362,512.043448 287.117021,495.977241 287.117021,476.235172 L287.117021,422.388276 L297.561404,422.388276 C321.441957,422.388276 340.861702,402.968966 340.861702,379.093793 L340.861702,198.250345 C340.861702,193.292414 336.857723,189.284828 331.904255,189.284828 L331.904255,189.284828 Z M322.946809,379.093793 C322.946809,393.08 311.561894,404.457241 297.561404,404.457241 L278.159574,404.457241 C273.215064,404.457241 269.202128,408.464828 269.202128,413.422759 L269.202128,476.235172 C269.202128,486.097241 261.167298,494.112414 251.287234,494.112414 C241.40717,494.112414 233.37234,486.088276 233.37234,476.235172 L233.37234,413.422759 C233.37234,408.464828 229.359404,404.457241 224.414894,404.457241 L188.585106,404.457241 C183.640596,404.457241 179.62766,408.464828 179.62766,413.422759 L179.62766,476.235172 C179.62766,486.097241 171.59283,494.112414 161.712766,494.112414 C151.832702,494.112414 143.797872,486.088276 143.797872,476.235172 L143.797872,413.422759 C143.797872,408.464828 139.784936,404.457241 134.840426,404.457241 L115.447553,404.457241 C101.447064,404.457241 90.0531915,393.071034 90.0531915,379.093793 L90.0531915,207.215862 L322.946809,207.215862 L322.946809,379.093793 L322.946809,379.093793 Z" id="Shape"></path>
                    <path d="M381.170213,189.284828 C363.88234,189.284828 349.819149,203.378621 349.819149,220.7 L349.819149,346.145517 C349.819149,363.466897 363.88234,377.56069 381.170213,377.56069 C398.458085,377.56069 412.521277,363.466897 412.521277,346.145517 L412.521277,220.7 C412.521277,203.378621 398.458085,189.284828 381.170213,189.284828 L381.170213,189.284828 Z M394.606383,346.145517 C394.606383,353.577931 388.578021,359.629655 381.170213,359.629655 C373.762404,359.629655 367.734043,353.577931 367.734043,346.145517 L367.734043,220.7 C367.734043,213.267586 373.762404,207.215862 381.170213,207.215862 C388.578021,207.215862 394.606383,213.267586 394.606383,220.7 L394.606383,346.145517 L394.606383,346.145517 Z" id="Shape"></path>
                    <path d="M31.8297872,189.284828 C14.5419149,189.284828 0.478723404,203.378621 0.478723404,220.7 L0.478723404,346.145517 C0.478723404,363.466897 14.5419149,377.56069 31.8297872,377.56069 C49.1176596,377.56069 63.1808511,363.466897 63.1808511,346.145517 L63.1808511,220.7 C63.1808511,203.378621 49.1176596,189.284828 31.8297872,189.284828 L31.8297872,189.284828 Z M45.2659574,346.145517 C45.2659574,353.577931 39.2375957,359.629655 31.8297872,359.629655 C24.4219787,359.629655 18.393617,353.577931 18.393617,346.145517 L18.393617,220.7 C18.393617,213.267586 24.4219787,207.215862 31.8297872,207.215862 C39.2375957,207.215862 45.2659574,213.267586 45.2659574,220.7 L45.2659574,346.145517 L45.2659574,346.145517 Z" id="Shape"></path>
                </g>
            </g>
        </g>
    </g>
</svg>