<?xml version="1.0" encoding="UTF-8"?>
<svg width="444px" height="513px" viewBox="0 0 444 513" version="1.1" xmlns="http://www.w3.org/2000/svg" xmlns:xlink="http://www.w3.org/1999/xlink">
    <!-- Generator: Sketch 39.1 (31720) - http://www.bohemiancoding.com/sketch -->
    <title>002-apple copy</title>
    <desc>Created with Sketch.</desc>
    <defs></defs>
    <g id="Page-1" stroke="none" stroke-width="1" fill="none" fill-rule="evenodd">
        <g id="002-apple-copy" fill="#000000">
            <g id="Layer_1">
                <g id="Group">
                    <g id="Shape">
                        <path d="M442.705,361.467 L442.705,359.67 L442.705,350.688 L438.214,347.993 C397.793,326.435 378.93,295.895 378.93,254.575 C378.93,219.543 394.2,189.901 422.046,170.14 L432.825,164.751 L425.639,155.769 C407.674,133.313 377.134,102.773 329.527,102.773 C320.456,102.773 312.019,105.001 303.65,108.309 C323.35,86.986 334.018,59.921 334.018,29.117 C334.018,23.728 334.018,18.338 333.12,12.05 L333.12,10.253 L333.12,9.355 L332.222,6.66 C331.324,4.863 330.425,2.169 327.731,1.271 C325.036,0.373 323.24,-0.526 320.545,0.373 C272.938,13.847 222.636,51.573 222.636,118.043 C222.636,121.875 222.641,125.713 223.048,129.952 C215.216,127.907 208.349,124.081 201.078,119.84 C188.503,112.654 175.029,104.57 154.369,104.57 C63.646,104.57 0.769,187.209 0.769,260.865 C0.769,301.286 13.344,371.349 49.274,436.023 C77.12,486.325 109.456,512.374 143.59,512.374 C156.165,512.374 168.741,507.883 183.113,503.392 C197.485,497.104 213.653,491.715 229.822,491.715 C243.296,491.715 256.769,497.104 270.243,501.596 C283.717,506.087 298.089,511.477 312.461,511.477 C383.422,511.477 443.605,422.551 443.605,366.859 C443.604,365.06 442.705,363.263 442.705,361.467 L442.705,361.467 Z M315.155,21.032 C316.053,24.625 316.053,27.32 315.155,30.014 C315.155,91.095 269.344,118.042 240.601,128.821 C239.703,124.33 239.703,120.737 239.703,118.042 C239.702,65.944 277.428,34.505 315.155,21.032 L315.155,21.032 Z M425.639,363.263 L425.639,365.958 C425.639,433.326 355.576,492.611 312.46,492.611 C300.783,492.611 288.207,488.12 275.632,483.629 C260.362,478.239 245.092,472.85 228.923,472.85 C209.162,472.85 191.197,479.138 175.927,485.425 C164.25,489.916 152.573,494.407 143.59,494.407 C109.457,494.407 81.611,458.477 65.443,427.937 C31.31,365.958 18.734,299.488 18.734,260.863 C18.734,179.123 90.594,122.533 154.369,122.533 C169.639,122.533 180.418,128.821 192.994,136.007 C205.569,143.193 218.145,150.379 236.11,150.379 C259.464,150.379 278.328,141.397 294.496,133.312 C307.97,127.024 318.749,121.635 330.426,121.635 C365.458,121.635 389.71,140.498 406.777,160.26 C378.033,182.716 361.865,215.951 361.865,254.576 C361.865,301.285 382.525,336.316 425.64,360.569 C425.639,361.467 425.639,362.365 425.639,363.263 L425.639,363.263 Z"></path>
                    </g>
                </g>
            </g>
        </g>
    </g>
</svg>