<?xml version="1.0" encoding="UTF-8"?>
<svg width="46px" height="45px" viewBox="0 0 46 45" version="1.1" xmlns="http://www.w3.org/2000/svg" xmlns:xlink="http://www.w3.org/1999/xlink">
    <!-- Generator: Sketch 39.1 (31720) - http://www.bohemiancoding.com/sketch -->
    <title>Fill 1</title>
    <desc>Created with Sketch.</desc>
    <defs></defs>
    <g id="Page-1" stroke="none" stroke-width="1" fill="none" fill-rule="evenodd">
        <g id="003-gift" fill="#2699FB">
            <path d="M45.602,9.002 L33.395,9.002 C34.043,8.068 34.398,6.963 34.398,5.795 C34.398,4.295 33.82,2.888 32.766,1.838 C30.582,-0.346 27.031,-0.346 24.848,1.838 L22.582,4.099 L20.32,1.838 C18.137,-0.346 14.586,-0.346 12.402,1.838 C11.348,2.888 10.766,4.295 10.766,5.795 C10.766,6.963 11.121,8.068 11.773,9.002 L0,9.002 L0,20.201 L4,20.201 L4,44.201 L42.398,44.201 L42.398,20.201 L45.602,20.201 L45.602,9.002 Z M25.977,2.966 C27.539,1.408 30.074,1.408 31.633,2.966 C32.387,3.72 32.801,4.724 32.801,5.795 C32.801,6.869 32.387,7.873 31.633,8.623 L31.258,9.002 L19.941,9.002 L23.715,5.232 L25.977,2.966 Z M13.531,8.623 C12.781,7.873 12.367,6.869 12.367,5.795 C12.367,4.724 12.781,3.72 13.531,2.966 C15.094,1.408 17.629,1.408 19.191,2.966 L21.453,5.232 L18.625,8.06 C18.457,8.224 18.305,8.412 18.16,8.611 C18.117,8.67 18.074,8.732 18.031,8.795 C17.984,8.865 17.934,8.927 17.887,9.002 L13.91,9.002 L13.531,8.623 Z M1.602,18.603 L22.398,18.603 L22.398,10.603 L1.602,10.603 L1.602,18.603 Z M5.602,29.802 L22.398,29.802 L22.398,20.201 L5.602,20.201 L5.602,29.802 Z M5.602,42.603 L22.398,42.603 L22.398,31.4 L5.602,31.4 L5.602,42.603 Z M24,42.603 L40.801,42.603 L40.801,31.4 L24,31.4 L24,42.603 Z M24,29.802 L40.801,29.802 L40.801,20.201 L24,20.201 L24,29.802 Z M24,18.603 L44,18.603 L44,10.603 L24,10.603 L24,18.603 Z" id="Fill-1"></path>
        </g>
    </g>
</svg>