<?xml version="1.0" encoding="UTF-8"?>
<svg width="58px" height="58px" viewBox="0 0 58 58" version="1.1" xmlns="http://www.w3.org/2000/svg" xmlns:xlink="http://www.w3.org/1999/xlink">
    <!-- Generator: Sketch 39.1 (31720) - http://www.bohemiancoding.com/sketch -->
    <title>Fill 1</title>
    <desc>Created with Sketch.</desc>
    <defs></defs>
    <g id="Page-1" stroke="none" stroke-width="1" fill="none" fill-rule="evenodd">
        <g id="001-soccer-ball-variant" fill="#2699FB">
            <path d="M18.055,2.22 C14.465,3.677 11.242,5.817 8.48,8.579 C5.715,11.345 3.578,14.567 2.121,18.157 C0.715,21.626 0,25.29 0,29.052 C0,32.809 0.715,36.477 2.121,39.942 C3.578,43.536 5.715,46.759 8.48,49.52 C11.242,52.282 14.465,54.423 18.055,55.88 C21.523,57.286 25.191,57.997 28.949,57.997 C32.711,57.997 36.375,57.286 39.844,55.88 C43.434,54.423 46.656,52.282 49.418,49.52 C52.184,46.759 54.324,43.536 55.777,39.942 C57.184,36.477 57.898,32.809 57.898,29.052 C57.898,25.29 57.184,21.626 55.777,18.157 C54.324,14.567 52.18,11.341 49.418,8.579 C46.656,5.817 43.438,3.677 39.844,2.22 C36.375,0.813 32.711,0.102 28.949,0.102 C25.191,0.102 21.523,0.813 18.055,2.22 L18.055,2.22 Z M7.234,41.239 C5.84,40.364 4.555,39.356 3.418,38.169 C1.68,33.278 1.387,27.985 2.539,22.958 C3.078,21.891 3.695,20.864 4.391,19.884 C4.605,19.579 4.805,19.263 5.035,18.97 L11.57,22.837 L11.57,23.001 C11.555,26.513 11.91,30.001 12.621,33.438 C12.621,33.454 12.625,33.462 12.629,33.477 L7.562,41.423 C7.453,41.364 7.34,41.306 7.234,41.239 L7.234,41.239 Z M26.66,54.669 C27.785,55.243 28.945,55.727 30.137,56.122 C25.078,56.345 19.965,55.157 15.449,52.567 L26.398,54.516 C26.484,54.571 26.57,54.622 26.66,54.669 L26.66,54.669 Z M26.621,52.692 L13.695,50.388 C12.184,48.552 10.824,46.61 9.656,44.532 C9.359,44.005 9.027,43.493 8.773,42.942 L13.836,35.005 C13.945,35.032 14.07,35.063 14.215,35.098 C17.379,35.946 20.602,36.548 23.848,37.02 C24.035,37.048 24.195,37.071 24.332,37.087 L30.398,47.575 C29.344,49.056 28.281,50.528 27.191,51.985 C27.012,52.227 26.82,52.458 26.621,52.692 L26.621,52.692 Z M48.121,48.223 C47.09,49.251 46,50.181 44.855,51.005 C44.668,49.493 44.34,48.005 43.879,46.556 L50.352,34.477 C52.133,33.669 53.855,32.747 55.453,31.606 C55.66,31.458 55.832,31.29 55.969,31.11 C55.5,37.352 52.883,43.458 48.121,48.223 L48.121,48.223 Z M47.832,32.559 C48.074,33.016 48.312,33.481 48.551,33.954 L42.297,45.618 C42.262,45.626 42.227,45.634 42.191,45.638 C38.809,46.27 35.402,46.606 31.969,46.622 L25.727,35.833 C26.699,34.028 27.66,32.216 28.613,30.407 C29.262,29.177 29.898,27.942 30.535,26.704 L43.449,25.38 C45.031,27.7 46.531,30.067 47.832,32.559 L47.832,32.559 Z M45.211,18.723 C44.602,20.341 43.945,21.942 43.293,23.548 L30.711,24.841 C30.562,24.641 30.406,24.446 30.242,24.263 C28.754,22.579 27.262,20.907 25.766,19.231 C25.781,19.212 25.793,19.2 25.809,19.184 C25.207,18.583 24.602,17.981 24,17.38 L27.5,6.833 C27.742,6.77 27.988,6.716 28.23,6.688 C30.137,6.497 32.043,6.278 33.953,6.165 C35.121,6.102 36.297,6.063 37.484,6.145 L46.148,15.915 C45.852,16.856 45.559,17.802 45.211,18.723 L45.211,18.723 Z M48.121,9.88 C50.512,12.27 52.363,15.001 53.672,17.915 C52.051,16.802 50.32,15.884 48.5,15.138 C48.219,15.02 47.926,14.919 47.633,14.817 L39.102,5.204 C39.16,4.79 39.191,4.372 39.203,3.954 C42.449,5.274 45.492,7.251 48.121,9.88 L48.121,9.88 Z M20.266,3.446 C20.301,3.473 20.316,3.493 20.336,3.501 C22.285,4.173 24.059,5.165 25.73,6.341 L22.461,16.196 C22.441,16.2 22.426,16.204 22.41,16.212 C21.742,16.489 21.059,16.735 20.398,17.036 C17.684,18.27 15.035,19.638 12.539,21.278 L6.086,17.458 C6.094,17.255 6.129,17.052 6.195,16.868 C6.629,15.712 7.059,14.552 7.547,13.419 C7.926,12.548 8.355,11.704 8.824,10.884 C9.133,10.544 9.449,10.208 9.777,9.88 C12.844,6.813 16.469,4.638 20.328,3.348 C20.309,3.38 20.285,3.415 20.266,3.446 L20.266,3.446 Z" id="Fill-1"></path>
        </g>
    </g>
</svg>