<?xml version="1.0" encoding="UTF-8"?>
<svg width="387px" height="300px" viewBox="0 0 387 300" version="1.1" xmlns="http://www.w3.org/2000/svg" xmlns:xlink="http://www.w3.org/1999/xlink">
    <!-- Generator: Sketch 39.1 (31720) - http://www.bohemiancoding.com/sketch -->
    <title>002-soccer-shoe</title>
    <desc>Created with Sketch.</desc>
    <defs>
        <polygon id="path-1" points="0.06 0.802 0.06 186.536 409.599196 186.536 409.599196 0.802 0.06 0.802"></polygon>
    </defs>
    <g id="Page-1" stroke="none" stroke-width="1" fill="none" fill-rule="evenodd">
        <g id="002-soccer-shoe" transform="translate(210.000000, 146.500000) rotate(24.000000) translate(-210.000000, -146.500000) translate(5.000000, 53.000000)">
            <mask id="mask-2" fill="white">
                <use xlink:href="#path-1"></use>
            </mask>
            <g id="Clip-2"></g>
            <path d="M398.152,103.895 L290.008,50.243 C292.055,47.852 291.922,44.255 289.629,42.036 C287.246,39.727 283.449,39.79 281.145,42.173 L278.742,44.653 L259.246,34.985 C261.367,32.595 261.254,28.942 258.934,26.696 C256.555,24.391 252.758,24.454 250.449,26.833 L247.977,29.391 L228.484,19.723 C230.676,17.333 230.582,13.626 228.242,11.36 C225.859,9.052 222.059,9.114 219.758,11.497 L217.211,14.13 L194.57,2.899 C191.805,1.524 188.707,0.802 185.617,0.802 C181.371,0.802 177.305,2.106 173.859,4.583 L97.305,59.548 C94.461,61.587 91.125,62.665 87.66,62.665 C81.445,62.665 75.801,59.255 72.926,53.759 L64.164,37.013 C57.219,23.727 43.59,15.477 28.602,15.477 L24.141,15.477 C18.039,15.477 13.004,20.048 12.41,26.114 L2.898,114.63 L2.898,114.634 L0.16,140.098 C-0.398,145.27 0.508,150.485 2.77,155.169 L5.836,161.52 C7.555,165.087 10.852,167.634 14.637,168.489 L14.637,175.7 C14.637,181.677 19.5,186.536 25.473,186.536 L49.918,186.536 C55.895,186.536 60.758,181.677 60.758,175.7 L60.758,168.805 L65.949,168.805 L65.949,175.7 C65.949,181.677 70.809,186.536 76.785,186.536 L101.23,186.536 C107.207,186.536 112.066,181.677 112.066,175.7 L112.066,168.743 C121.945,168.313 131.512,165.302 139.871,159.954 C144.836,156.782 150.57,155.102 156.461,155.102 L196.98,155.102 C202.871,155.102 208.609,156.782 213.57,159.954 C219.164,163.532 225.297,166.063 231.703,167.477 L231.703,175.7 C231.703,181.677 236.562,186.536 242.539,186.536 L266.984,186.536 C272.961,186.536 277.82,181.677 277.82,175.7 L277.82,168.802 L283.012,168.802 L283.012,175.7 C283.012,181.677 287.875,186.536 293.852,186.536 L318.297,186.536 C324.273,186.536 329.133,181.677 329.133,175.7 L329.133,168.559 C330.867,168.454 332.598,168.309 334.324,168.134 L334.324,175.7 C334.324,181.677 339.184,186.536 345.16,186.536 L369.605,186.536 C375.582,186.536 380.445,181.677 380.445,175.7 L380.445,157.649 C394.559,153.235 405.41,141.79 409,127.333 C411.316,118.02 406.754,108.161 398.152,103.895 L398.152,103.895 Z M26.637,174.536 L48.754,174.536 L48.754,168.805 L26.637,168.805 L26.637,174.536 Z M77.949,174.536 L100.066,174.536 L100.066,168.805 L77.949,168.805 L77.949,174.536 Z M196.98,143.102 L156.461,143.102 C148.273,143.102 140.305,145.434 133.406,149.845 C126.289,154.395 118.055,156.805 109.602,156.805 L17.434,156.805 C17.102,156.805 16.789,156.61 16.641,156.305 L13.574,149.958 C12.289,147.286 11.773,144.325 12.09,141.38 L14.633,117.708 C17.535,116.774 27.16,115.473 58.742,118.489 C62.055,118.813 64.973,116.388 65.285,113.087 C65.602,109.786 63.18,106.86 59.883,106.544 C43.379,104.97 31.227,104.364 22.738,104.696 C21.008,104.766 18.562,104.864 15.977,105.227 L24.332,27.477 L28.602,27.477 C39.109,27.477 48.664,33.263 53.531,42.575 L62.293,59.321 C67.242,68.786 76.965,74.665 87.66,74.665 C93.652,74.665 99.406,72.809 104.301,69.294 L180.855,14.333 C182.254,13.329 183.898,12.802 185.617,12.802 C186.867,12.802 188.117,13.095 189.242,13.649 L208.449,23.177 L183.09,49.38 C180.785,51.759 180.848,55.555 183.227,57.864 C184.395,58.989 185.898,59.552 187.398,59.552 C188.969,59.552 190.535,58.938 191.711,57.723 L219.73,28.774 L239.215,38.442 L223.746,54.419 C221.445,56.802 221.508,60.598 223.883,62.903 C225.051,64.032 226.555,64.591 228.059,64.591 C229.625,64.591 231.195,63.981 232.367,62.766 L250.496,44.036 L269.98,53.704 L259.371,64.661 C257.066,67.044 257.129,70.845 259.508,73.145 C260.676,74.274 262.18,74.837 263.68,74.837 C265.25,74.837 266.816,74.223 267.992,73.009 L281.266,59.302 L392.82,114.641 C396.473,116.454 398.336,120.485 397.352,124.442 C396.336,128.552 394.496,132.317 392.02,135.567 C352.516,145.434 244.781,130.712 157.949,118.852 C130.148,115.052 103.883,111.466 81.301,108.837 C78.004,108.458 75.031,110.813 74.648,114.102 C74.266,117.395 76.621,120.372 79.914,120.755 C102.383,123.372 128.586,126.95 156.328,130.739 C226.273,140.298 303.168,150.802 354.547,150.802 C356.227,150.802 357.875,150.786 359.5,150.763 L350.91,153.001 C341.238,155.52 331.262,156.802 321.262,156.802 L243.836,156.802 C235.383,156.802 227.152,154.395 220.035,149.841 C213.141,145.434 205.168,143.102 196.98,143.102 L196.98,143.102 Z M265.82,174.536 L243.703,174.536 L243.703,168.802 C243.75,168.802 243.793,168.805 243.836,168.805 L265.82,168.805 L265.82,174.536 Z M295.016,174.536 L317.133,174.536 L317.133,168.805 L295.016,168.805 L295.016,174.536 Z M346.324,174.536 L346.324,166.348 C348.879,165.848 351.418,165.274 353.941,164.614 L368.445,160.837 L368.445,174.536 L346.324,174.536 Z" id="Fill-1" fill="#2699FB" mask="url(#mask-2)"></path>
        </g>
    </g>
</svg>